<svg xmlns="http://www.w3.org/2000/svg" xmlns:xlink="http://www.w3.org/1999/xlink" width="500" zoomAndPan="magnify" viewBox="0 0 375 374.999991" height="500" preserveAspectRatio="xMidYMid meet" version="1.0"><defs><clipPath id="id1"><path d="M 73.714844 130 L 300.964844 130 L 300.964844 275 L 73.714844 275 Z M 73.714844 130 " clip-rule="nonzero"/></clipPath><clipPath id="id2"><path d="M 187 130 L 300.964844 130 L 300.964844 275 L 187 275 Z M 187 130 " clip-rule="nonzero"/></clipPath></defs><g clip-path="url(#id1)"><path fill="rgb(2.749634%, 58.428955%, 100%)" d="M 87.0625 130.84375 L 287.613281 130.84375 C 288.488281 130.84375 289.355469 130.929688 290.21875 131.101562 C 291.078125 131.273438 291.910156 131.527344 292.722656 131.863281 C 293.53125 132.199219 294.300781 132.613281 295.03125 133.101562 C 295.757812 133.589844 296.433594 134.144531 297.054688 134.765625 C 297.671875 135.390625 298.226562 136.066406 298.714844 136.796875 C 299.199219 137.527344 299.613281 138.296875 299.945312 139.109375 C 300.28125 139.921875 300.535156 140.761719 300.707031 141.621094 C 300.878906 142.484375 300.964844 143.355469 300.964844 144.234375 L 300.964844 261.46875 C 300.964844 262.347656 300.878906 263.21875 300.707031 264.082031 C 300.535156 264.945312 300.28125 265.78125 299.945312 266.59375 C 299.613281 267.40625 299.199219 268.179688 298.714844 268.910156 C 298.226562 269.640625 297.671875 270.316406 297.054688 270.9375 C 296.433594 271.558594 295.757812 272.113281 295.03125 272.601562 C 294.300781 273.089844 293.53125 273.503906 292.722656 273.839844 C 291.910156 274.175781 291.078125 274.429688 290.21875 274.601562 C 289.355469 274.773438 288.488281 274.859375 287.613281 274.859375 L 87.0625 274.859375 C 86.1875 274.859375 85.320312 274.773438 84.460938 274.601562 C 83.601562 274.429688 82.765625 274.175781 81.957031 273.839844 C 81.144531 273.503906 80.375 273.089844 79.648438 272.601562 C 78.917969 272.113281 78.242188 271.558594 77.625 270.9375 C 77.003906 270.316406 76.449219 269.640625 75.964844 268.910156 C 75.476562 268.179688 75.066406 267.40625 74.730469 266.59375 C 74.394531 265.78125 74.140625 264.945312 73.96875 264.082031 C 73.800781 263.21875 73.714844 262.347656 73.714844 261.46875 L 73.714844 144.234375 C 73.714844 143.355469 73.800781 142.484375 73.96875 141.621094 C 74.140625 140.761719 74.394531 139.921875 74.730469 139.109375 C 75.066406 138.296875 75.476562 137.527344 75.964844 136.796875 C 76.449219 136.066406 77.003906 135.390625 77.625 134.765625 C 78.242188 134.144531 78.917969 133.589844 79.648438 133.101562 C 80.375 132.613281 81.144531 132.199219 81.957031 131.863281 C 82.765625 131.527344 83.601562 131.273438 84.460938 131.101562 C 85.320312 130.929688 86.1875 130.84375 87.0625 130.84375 Z M 87.0625 130.84375 " fill-opacity="1" fill-rule="nonzero"/></g><g clip-path="url(#id2)"><path fill="rgb(8.239746%, 42.349243%, 86.669922%)" d="M 287.613281 130.65625 L 187.339844 130.65625 L 187.339844 274.859375 L 287.613281 274.859375 C 288.488281 274.859375 289.355469 274.773438 290.21875 274.601562 C 291.078125 274.429688 291.910156 274.175781 292.722656 273.839844 C 293.53125 273.503906 294.300781 273.089844 295.03125 272.601562 C 295.757812 272.113281 296.433594 271.558594 297.054688 270.9375 C 297.671875 270.316406 298.226562 269.640625 298.714844 268.910156 C 299.199219 268.179688 299.613281 267.40625 299.945312 266.59375 C 300.28125 265.78125 300.535156 264.945312 300.707031 264.082031 C 300.878906 263.21875 300.964844 262.347656 300.964844 261.46875 L 300.964844 144.1875 C 300.976562 143.300781 300.902344 142.421875 300.738281 141.550781 C 300.578125 140.679688 300.332031 139.835938 300 139.011719 C 299.671875 138.191406 299.261719 137.410156 298.777344 136.667969 C 298.292969 135.929688 297.738281 135.242188 297.117188 134.613281 C 296.496094 133.984375 295.820312 133.421875 295.085938 132.925781 C 294.351562 132.433594 293.578125 132.015625 292.761719 131.675781 C 291.945312 131.335938 291.105469 131.078125 290.238281 130.90625 C 289.371094 130.734375 288.496094 130.652344 287.613281 130.65625 Z M 287.613281 130.65625 " fill-opacity="1" fill-rule="nonzero"/></g><path fill="rgb(87.449646%, 90.979004%, 95.689392%)" d="M 91.277344 240.386719 C 91.277344 241.273438 91.363281 242.152344 91.542969 243.023438 C 91.71875 243.890625 91.980469 244.734375 92.328125 245.550781 C 92.675781 246.367188 93.101562 247.136719 93.605469 247.867188 C 94.109375 248.597656 94.679688 249.265625 95.320312 249.878906 C 95.960938 250.492188 96.65625 251.035156 97.402344 251.503906 C 98.152344 251.976562 98.941406 252.367188 99.769531 252.679688 C 100.597656 252.988281 101.449219 253.210938 102.324219 253.351562 C 103.199219 253.488281 104.078125 253.535156 104.960938 253.492188 L 112.109375 253.492188 C 118.613281 253.410156 125.101562 253.71875 131.566406 254.421875 C 138.035156 255.121094 144.4375 256.207031 150.773438 257.679688 C 157.113281 259.148438 163.339844 260.996094 169.453125 263.21875 C 175.570312 265.441406 181.53125 268.023438 187.339844 270.964844 L 187.339844 117.976562 C 181.535156 115.027344 175.574219 112.4375 169.457031 110.207031 C 163.34375 107.976562 157.117188 106.125 150.78125 104.644531 C 144.441406 103.164062 138.039062 102.070312 131.570312 101.359375 C 125.101562 100.652344 118.617188 100.335938 112.109375 100.410156 C 109.222656 100.410156 106.378906 100.410156 103.539062 100.410156 C 102.714844 100.457031 101.898438 100.582031 101.097656 100.789062 C 100.292969 100.992188 99.519531 101.269531 98.769531 101.621094 C 98.019531 101.976562 97.308594 102.394531 96.640625 102.882812 C 95.96875 103.371094 95.351562 103.917969 94.785156 104.527344 C 94.222656 105.132812 93.71875 105.789062 93.277344 106.492188 C 92.835938 107.191406 92.464844 107.929688 92.164062 108.707031 C 91.863281 109.480469 91.640625 110.273438 91.492188 111.089844 C 91.339844 111.90625 91.269531 112.730469 91.277344 113.5625 Z M 91.277344 240.386719 " fill-opacity="1" fill-rule="nonzero"/><path fill="rgb(79.998779%, 84.709167%, 89.7995%)" d="M 283.398438 240.386719 C 283.398438 241.273438 283.3125 242.152344 283.136719 243.023438 C 282.957031 243.890625 282.695312 244.734375 282.347656 245.550781 C 282 246.363281 281.574219 247.136719 281.070312 247.867188 C 280.566406 248.597656 279.996094 249.265625 279.355469 249.878906 C 278.71875 250.492188 278.023438 251.035156 277.273438 251.503906 C 276.523438 251.976562 275.734375 252.367188 274.90625 252.679688 C 274.078125 252.988281 273.226562 253.210938 272.351562 253.347656 C 271.480469 253.488281 270.601562 253.535156 269.714844 253.492188 C 267.347656 253.492188 264.980469 253.492188 262.566406 253.492188 C 256.0625 253.410156 249.578125 253.71875 243.109375 254.421875 C 236.640625 255.121094 230.238281 256.207031 223.902344 257.679688 C 217.566406 259.148438 211.339844 260.996094 205.222656 263.21875 C 199.105469 265.441406 193.144531 268.023438 187.339844 270.964844 L 187.339844 117.976562 C 193.144531 115.027344 199.101562 112.4375 205.21875 110.207031 C 211.332031 107.976562 217.558594 106.125 223.898438 104.644531 C 230.234375 103.164062 236.636719 102.070312 243.105469 101.359375 C 249.574219 100.652344 256.0625 100.335938 262.566406 100.410156 L 271.136719 100.410156 C 271.964844 100.457031 272.777344 100.582031 273.582031 100.789062 C 274.382812 100.992188 275.160156 101.269531 275.910156 101.621094 C 276.660156 101.976562 277.367188 102.394531 278.039062 102.882812 C 278.707031 103.371094 279.324219 103.917969 279.890625 104.527344 C 280.457031 105.132812 280.957031 105.789062 281.398438 106.492188 C 281.839844 107.191406 282.210938 107.929688 282.511719 108.707031 C 282.8125 109.480469 283.035156 110.273438 283.1875 111.089844 C 283.335938 111.90625 283.40625 112.730469 283.398438 113.5625 Z M 283.398438 240.386719 " fill-opacity="1" fill-rule="nonzero"/></svg>